{"title":"18+ Submission 2018 UNCENSORED Movies BRRip x264 5.1 +Sample ☻rD","magnet":"magnet:?xt=urn:btih:3a76e5a7c34e4712ee392ade76a1e5f01118e08c&dn=18%2B+Submission+2018+UNCENSORED+Movies+BRRip+x264+5.1+%2BSample+%E2%98%BBrD&tr=udp%3A%2F%2Ftracker.leechers-paradise.org%3A6969&tr=udp%3A%2F%2Fzer0day.ch%3A1337&tr=udp%3A%2F%2Fopen.demonii.com%3A1337&tr=udp%3A%2F%2Ftracker.coppersurfer.tk%3A6969&tr=udp%3A%2F%2Fexodus.desync.com%3A6969","uploader":"basicssom","categoryP":"video","categoryS":"movies","size":"888408820","seeders":"1","leechers":"107","description":"----------------------------------------------------------------\r\n18+ Submission 2018 UNCENSORED Movies BRRip x264 5.1 with Sample &#x263B;rDX&#x263B;\r\n\r\nSCREEN SHOTS &amp; POSTER:\r\n   <a href=\"\nhttp://iphonehosting.eu/2018/7/trading/index.html\" rel=\"nofollow\" target=\"_NEW\">\nhttp://iphonehosting.eu/2018/7/trading/index.html</a> <a href=\"\nhttp://iphonehosting.eu/2018/7/trading/1.html\" rel=\"nofollow\" target=\"_NEW\">\nhttp://iphonehosting.eu/2018/7/trading/1.html</a> <a href=\"\nhttp://iphonehosting.eu/2018/7/trading/2.html\" rel=\"nofollow\" target=\"_NEW\">\nhttp://iphonehosting.eu/2018/7/trading/2.html</a>   <a href=\"\nhttp://iphonehosting.eu/2018/7/trading/3.html\" rel=\"nofollow\" target=\"_NEW\">\nhttp://iphonehosting.eu/2018/7/trading/3.html</a>   <a href=\"\nhttp://iphonehosting.eu/2018/7/trading/4.html\" rel=\"nofollow\" target=\"_NEW\">\nhttp://iphonehosting.eu/2018/7/trading/4.html</a>   <a href=\"\nhttp://iphonehosting.eu/2018/7/trading/5.html\" rel=\"nofollow\" target=\"_NEW\">\nhttp://iphonehosting.eu/2018/7/trading/5.html</a>   <a href=\"\nhttp://iphonehosting.eu/2018/7/trading/6.html\" rel=\"nofollow\" target=\"_NEW\">\nhttp://iphonehosting.eu/2018/7/trading/6.html</a>   <a href=\"\nhttp://iphonehosting.eu/2018/7/trading/7.html\" rel=\"nofollow\" target=\"_NEW\">\nhttp://iphonehosting.eu/2018/7/trading/7.html</a>   <a href=\"\nhttp://iphonehosting.eu/2018/7/trading/8.html\" rel=\"nofollow\" target=\"_NEW\">\nhttp://iphonehosting.eu/2018/7/trading/8.html</a>   <a href=\"\nhttp://iphonehosting.eu/2018/7/trading/9.html\" rel=\"nofollow\" target=\"_NEW\">\nhttp://iphonehosting.eu/2018/7/trading/9.html</a>   <a href=\"\nhttp://iphonehosting.eu/2018/7/trading/10.html\" rel=\"nofollow\" target=\"_NEW\">\nhttp://iphonehosting.eu/2018/7/trading/10.html</a>\r\n\r\nFile size                                : 839 MiB\r\nDuration                                 : 1 h 46 min\r\nOverall bit rate mode                    : Constant\r\nOverall bit rate                         : 1 103 kb/s\r\nMovie name                               : 18+ Submission 2018 UNCENSORED Movies BRRip x264 5.1 &#x263B;rDX&#x263B;\r\n\r\nVideo\r\nID                                       : 2\r\nFormat                                   : AVC\r\nFormat/Info                              : Advanced Video Codec\r\nFormat profile                           : Main@L3\r\nFormat settings, CABAC                   : Yes\r\nFormat settings, ReFrames                : 2 frames\r\nFormat settings, GOP                     : M=1, N=12\r\nCodec ID                                 : V_MPEG4/ISO/AVC\r\nDuration                                 : 1 h 46 min\r\nBit rate mode                            : Constant\r\nBit rate                                 : 720 kb/s\r\nWidth                                    : 720 pixels\r\nHeight                                   : 304 pixels\r\nDisplay aspect ratio                     : 2.35:1\r\nFrame rate mode                          : Constant\r\nFrame rate                               : 23.976 FPS\r\nColor space                              : YUV\r\nChroma subsampling                       : 4:2:0\r\nBit depth                                : 8 bits\r\nScan type                                : Progressive\r\nBits/(Pixel*Frame)                       : 0.137\r\nStream size                              : 530 MiB (63%)\r\nTitle                                    : &#x263B;rDX&#x263B;\r\nDefault                                  : Yes\r\nForced                                   : No\r\n\r\nAudio\r\nID                                       : 1\r\nFormat                                   : AC-3\r\nFormat/Info                              : Audio Coding 3\r\nMode extension                           : CM (complete main)\r\nFormat settings, Endianness              : Big\r\nCodec ID                                 : A_AC3\r\nDuration                                 : 1 h 46 min\r\nBit rate mode                            : Constant\r\nBit rate                                 : 384 kb/s\r\nChannel(s)                               : 6 channels\r\nChannel positions                        : Front: L C R, Side: L R, LFE\r\nSampling rate                            : 48.0 kHz\r\nFrame rate                               : 31.250 FPS (1536 spf)\r\nBit depth                                : 16 bits\r\nCompression mode                         : Lossy\r\nStream size                              : 292 MiB (35%)\r\nTitle                                    : &#x263B;rDX&#x263B;\r\nDefault                                  : Yes\r\nForced                                   : No","last_updated":"2018-06-29T12:09:52.386Z","parsed":{"xt":"urn:btih:3a76e5a7c34e4712ee392ade76a1e5f01118e08c","dn":"18  Submission 2018 UNCENSORED Movies BRRip x264 5.1  Sample ☻rD","tr":["udp://exodus.desync.com:6969","udp://open.demonii.com:1337","udp://tracker.coppersurfer.tk:6969","udp://tracker.leechers-paradise.org:6969","udp://zer0day.ch:1337"],"infoHash":"3a76e5a7c34e4712ee392ade76a1e5f01118e08c","infoHashBuffer":{"type":"Buffer","data":[58,118,229,167,195,78,71,18,238,57,42,222,118,161,229,240,17,24,224,140]},"name":"18  Submission 2018 UNCENSORED Movies BRRip x264 5.1  Sample ☻rD","announce":["udp://exodus.desync.com:6969","udp://open.demonii.com:1337","udp://tracker.coppersurfer.tk:6969","udp://tracker.leechers-paradise.org:6969","udp://zer0day.ch:1337"],"urlList":[]}}